PathFileType  4	(X/Y/Z) C:\Users\antoi\Documents\MyRepositories\mobilecap\ResultsAnalysis
DataRate	CameraRate	NumFrames	NumMarkers	Units	OrigDataRate	OrigDataStartFrame	OrigNumFrames
100.0	100.0	4	51	mm	100.0	69	136
Frame#	Time	r_knee			r_shank_antsup			r_ankle			r_calc			r_5meta			r_toe			L_knee			L_shank_antsup			L_ankle			L_calc			L_5meta			L_toe			r_sh2			r_sh3			r_sh4			L_sh2			L_sh3			r_thigh1			r_thigh2			r_thigh3			r_thigh4			r_thigh5			L_thigh1			L_thigh2			L_thigh3			L_thigh4			r.ASIS			r.PSIS			L.ASIS			L.PSIS			C7			R_Shoulder			L_Shoulder			R_Sternum			L_Sternum			R_humerus			R_elbow_med			R_elbow_lat			R_forearm			R_wrist_radius			R_wrist_ulna			L_humerus			L_elbow_med			L_elbow_lat			L_forearm			L_wrist_radius			L_wrist_ulna			R_HJC			L_HJC			R_HJC_reg			L_HJC_reg			
		X1	Y1	Z1	X2	Y2	Z2	X3	Y3	Z3	X4	Y4	Z4	X5	Y5	Z5	X6	Y6	Z6	X7	Y7	Z7	X8	Y8	Z8	X9	Y9	Z9	X10	Y10	Z10	X11	Y11	Z11	X12	Y12	Z12	X13	Y13	Z13	X14	Y14	Z14	X15	Y15	Z15	X16	Y16	Z16	X17	Y17	Z17	X18	Y18	Z18	X19	Y19	Z19	X20	Y20	Z20	X21	Y21	Z21	X22	Y22	Z22	X23	Y23	Z23	X24	Y24	Z24	X25	Y25	Z25	X26	Y26	Z26	X27	Y27	Z27	X28	Y28	Z28	X29	Y29	Z29	X30	Y30	Z30	X31	Y31	Z31	X32	Y32	Z32	X33	Y33	Z33	X34	Y34	Z34	X35	Y35	Z35	X36	Y36	Z36	X37	Y37	Z37	X38	Y38	Z38	X39	Y39	Z39	X40	Y40	Z40	X41	Y41	Z41	X42	Y42	Z42	X43	Y43	Z43	X44	Y44	Z44	X45	Y45	Z45	X46	Y46	Z46	X47	Y47	Z47	X48	Y48	Z48	X49	Y49	Z49	X50	Y50	Z50	X51	Y51	Z51	

69	0.68000000	688.73474	515.16415	-43.69264	650.38248	439.30241	-33.07737	353.12949	243.08641	-95.13559	289.03100	278.35126	-144.14509	352.74938	78.88649	-88.71778	391.14246	75.20608	-148.38706	809.15828	530.69058	-348.41705	864.15198	421.35303	-346.62124	870.45545	92.98939	-307.47436	798.32336	54.35224	-271.50494	1043.51592	65.48323	-257.91566	1029.41299	33.56533	-322.93772	562.33741	367.23554	-38.08858	599.37301	499.77217	-26.55186	506.84495	432.10202	-41.55736	777.88097	411.07464	-375.74311	802.22678	293.07405	-365.13159	749.96379	832.13570	-25.65234	768.72102	725.34795	-27.07794	713.10814	689.99708	-13.08900	638.73985	811.38006	-40.94563	662.02157	697.25423	-36.17416	815.94904	862.08349	-379.21374	850.51279	728.34742	-371.99960	703.08706	828.40365	-393.72287	746.58451	695.63497	-385.84932	770.97229	1027.86984	-79.69163	581.68650	1066.22965	-168.82206	791.92689	1042.92264	-339.38875	587.05849	1070.80119	-272.82481	575.65117	1577.76271	-236.30700	637.51365	1534.73369	-56.77742	657.31768	1537.44671	-397.35767	727.44899	1510.65672	-196.78163	731.23630	1507.69545	-250.71667	661.13625	1277.46073	55.45841	635.01514	1166.89524	0.68236	657.83871	1188.56002	80.44298	785.65468	1088.27457	79.67668	871.70439	1014.19891	59.05555	838.54677	994.67245	83.22766	638.00186	1273.80860	-477.76189	566.58339	1194.80379	-422.66711	604.11225	1191.63244	-483.34826	644.74259	1021.84937	-481.95768	665.18504	924.47597	-459.04470	632.80691	921.91858	-484.72180	690.10001	947.05113	-97.58483	708.78432	960.62274	-326.76333	704.07228	953.85604	-123.48402	712.94606	961.41698	-295.32869	
70	0.69000000	716.51345	516.32349	-42.21500	677.90824	441.39930	-31.91934	376.54004	253.59154	-94.08909	316.28266	293.33971	-143.57760	363.95383	88.57338	-88.43162	405.06480	81.61042	-146.12480	814.83037	531.64570	-349.20754	868.38181	421.51366	-347.26327	870.63903	92.96293	-307.49923	798.35576	54.39327	-271.55108	1043.56200	64.94011	-257.69091	1029.45285	33.33667	-322.91860	588.40473	371.10481	-36.95737	628.08060	502.78863	-25.18484	534.22266	437.02228	-40.01515	781.95187	412.19726	-376.39317	804.92554	293.95954	-365.57403	766.14447	833.46117	-25.09684	788.10173	727.15948	-25.71135	733.17529	690.29091	-11.94511	655.58494	809.37917	-41.95700	682.04013	695.76129	-36.50696	826.73566	863.50120	-380.40223	859.43099	729.38701	-372.53384	713.34021	830.99398	-394.88292	755.29226	697.82114	-386.80558	783.02447	1028.24719	-80.75747	593.75737	1066.79757	-168.48896	803.64544	1045.26728	-340.25992	598.74955	1072.56289	-272.32130	587.89462	1579.16216	-237.51897	649.40067	1536.48536	-57.57051	670.19285	1538.39588	-398.18167	739.51011	1512.09492	-197.53038	743.42474	1508.98133	-251.40865	670.27106	1278.38696	54.03090	643.56189	1168.43768	-1.40548	665.90169	1189.52106	78.56953	791.99038	1086.97438	78.73599	876.87809	1011.32423	58.80977	843.09933	992.40619	82.65616	655.03264	1274.66674	-479.33799	584.09654	1194.29713	-425.36547	622.25061	1191.93821	-485.63328	666.25244	1022.91993	-484.03967	688.58600	926.00511	-461.11451	656.38619	922.80161	-486.86606	702.53430	947.33291	-98.75725	720.39875	962.85016	-327.90030	716.60059	953.97862	-125.15024	724.85519	963.51913	-296.86260	
71	0.70000000	743.83688	518.47626	-41.08561	705.39715	444.10216	-31.23183	400.69075	263.59007	-93.37539	344.18961	306.58574	-143.64806	377.75983	98.24344	-87.90988	421.43990	88.01008	-143.48184	819.66147	532.43955	-349.94832	871.88012	421.65072	-347.90225	870.67922	92.96725	-307.47607	798.34296	54.38399	-271.56528	1043.50613	64.63193	-257.48479	1029.42908	33.29881	-322.91026	614.78115	375.23196	-36.18135	656.54949	506.21522	-24.26497	561.64351	441.93754	-38.73537	785.24399	413.19520	-376.81698	806.99601	294.75975	-365.82252	782.27574	835.26014	-24.84799	807.46397	729.48766	-24.96155	753.29054	691.16768	-11.08060	672.43299	808.01660	-42.86617	702.11257	695.13114	-36.91803	836.90578	864.49982	-381.22495	867.47974	729.98512	-372.58580	723.09878	833.48632	-395.76312	763.21054	699.79286	-387.49271	794.89283	1029.03029	-81.59962	605.65706	1067.64526	-168.39619	815.34188	1047.34613	-340.92569	610.41800	1074.38915	-272.06188	600.07265	1580.66289	-238.56463	661.26102	1538.28614	-58.21108	682.99372	1539.43394	-398.83225	751.46163	1513.56540	-198.09267	755.50546	1510.30501	-251.91458	679.38292	1279.37952	52.63462	652.05333	1170.09052	-3.50871	673.91875	1190.53119	76.64387	798.09646	1085.58978	77.79558	881.62372	1008.29474	58.51306	847.25659	990.01492	82.09787	672.12477	1275.71485	-480.81697	601.70959	1193.89856	-428.04464	640.52413	1192.43645	-487.86554	687.94942	1024.28099	-486.10220	712.17311	927.85357	-463.17131	680.29596	924.00900	-488.98781	714.65030	948.03712	-99.67269	731.99303	964.90026	-328.77938	728.87819	954.37053	-126.56054	736.75736	965.53513	-298.12737	
72	0.71000000	770.47611	521.60478	-40.22404	732.65341	447.36910	-30.96951	425.33296	272.83050	-93.03809	372.00476	317.68338	-144.40650	394.69343	107.43254	-86.95939	440.52459	94.16031	-140.51676	823.84753	533.10556	-350.64933	874.83677	421.76886	-348.53273	870.64813	92.98663	-307.43621	798.30505	54.36456	-271.56191	1043.40294	64.44705	-257.32907	1029.37774	33.33119	-322.91705	641.21402	379.59340	-35.74564	684.58153	510.02503	-23.76023	588.87103	446.84392	-37.75318	787.98637	414.10078	-377.11453	808.63253	295.49066	-365.98591	798.46750	837.58556	-24.91858	826.88804	732.39464	-24.79570	773.55209	692.71188	-10.49448	689.39844	807.33287	-43.62307	722.33937	695.38380	-37.33081	846.48152	865.11440	-381.73428	874.75957	730.18118	-372.25139	732.47308	835.87329	-396.38647	770.43430	701.56040	-387.91938	806.68127	1030.29301	-82.21047	617.44156	1068.78719	-168.53431	826.99760	1049.13138	-341.38984	622.09201	1076.26714	-272.06222	612.16975	1582.23972	-239.45410	673.05523	1540.13299	-58.71758	695.71076	1540.56340	-399.32238	763.30637	1515.06270	-198.47972	767.47459	1511.66086	-252.24365	688.49918	1280.43671	51.26713	660.51922	1171.84867	-5.63503	681.92534	1191.60143	74.67730	803.98898	1084.14131	76.85730	885.93525	1005.13645	58.13301	851.03722	987.52467	81.55152	689.25068	1276.96040	-482.18631	619.42480	1193.62594	-430.66713	658.92531	1193.13981	-490.01178	709.79417	1025.95179	-488.11878	735.89722	930.04669	-465.19428	704.47919	925.56163	-491.07258	726.53203	949.22281	-100.28515	743.59563	966.73895	-329.37235	740.99151	955.06233	-127.66291	748.69162	967.44757	-299.07868	
